<svg width="32" height="32" viewBox="0 0 32 32" fill="none" xmlns="http://www.w3.org/2000/svg">
<circle cx="16" cy="16" r="16" fill="white"/>
<g clip-path="url(#clip0_330_1271)">
<path d="M19.8392 17.1938C19.8081 17.1789 18.6416 16.6045 18.4344 16.5299C18.3497 16.4995 18.2591 16.4698 18.1627 16.4698C18.0052 16.4698 17.8728 16.5483 17.7698 16.7025C17.6533 16.8757 17.3005 17.288 17.1916 17.4112C17.1773 17.4274 17.1579 17.4469 17.1463 17.4469C17.1358 17.4469 16.9553 17.3725 16.9006 17.3488C15.6494 16.8052 14.6996 15.4982 14.5694 15.2778C14.5508 15.2461 14.55 15.2317 14.5498 15.2317C14.5544 15.2149 14.5965 15.1727 14.6182 15.151C14.6817 15.0881 14.7506 15.0052 14.8172 14.9251C14.8487 14.8871 14.8803 14.8491 14.9113 14.8132C15.0079 14.7008 15.0509 14.6136 15.1008 14.5125L15.1269 14.4599C15.2487 14.218 15.1447 14.0139 15.1111 13.9479C15.0835 13.8928 14.591 12.7041 14.5386 12.5792C14.4127 12.2779 14.2463 12.1376 14.0151 12.1376C13.9936 12.1376 14.0151 12.1376 13.9251 12.1414C13.8156 12.146 13.2189 12.2245 12.9551 12.3908C12.6754 12.5672 12.2021 13.1294 12.2021 14.118C12.2021 15.0078 12.7668 15.848 13.0093 16.1675C13.0153 16.1756 13.0264 16.1919 13.0424 16.2154C13.9709 17.5714 15.1283 18.5763 16.3017 19.045C17.4313 19.4962 17.9662 19.5484 18.2703 19.5484H18.2704C18.3981 19.5484 18.5004 19.5383 18.5907 19.5295L18.6479 19.524C19.0381 19.4894 19.8957 19.045 20.0908 18.503C20.2444 18.076 20.285 17.6095 20.1827 17.4402C20.1127 17.3251 19.992 17.2672 19.8392 17.1938Z" fill="#8513AC"/>
<path d="M16.142 8C11.8087 8 8.28331 11.4989 8.28331 15.7996C8.28331 17.1906 8.65557 18.5523 9.36077 19.7439L8.011 23.7255C7.98586 23.7997 8.00456 23.8818 8.05947 23.9377C8.0991 23.9782 8.15287 24 8.20778 24C8.22882 24 8.25001 23.9968 8.27069 23.9902L12.4224 22.671C13.5585 23.278 14.8425 23.5984 16.1421 23.5984C20.4749 23.5984 24 20.0999 24 15.7996C24 11.4989 20.4749 8 16.142 8ZM16.142 21.9737C14.9192 21.9737 13.7348 21.6206 12.7168 20.9526C12.6825 20.9301 12.6428 20.9185 12.6028 20.9185C12.5816 20.9185 12.5605 20.9218 12.5398 20.9283L10.4601 21.5894L11.1315 19.6087C11.1532 19.5446 11.1423 19.4739 11.1023 19.4192C10.3271 18.3599 9.91723 17.1083 9.91723 15.7996C9.91723 12.3948 12.7097 9.62473 16.142 9.62473C19.5739 9.62473 22.366 12.3948 22.366 15.7996C22.366 19.2041 19.574 21.9737 16.142 21.9737Z" fill="#8513AC"/>
</g>
<defs>
<clipPath id="clip0_330_1271">
<rect width="16" height="16" fill="white" transform="translate(8 8)"/>
</clipPath>
</defs>
</svg>
