<svg width="32" height="32" viewBox="0 0 32 32" fill="none" xmlns="http://www.w3.org/2000/svg">
<circle cx="16" cy="16" r="16" fill="white"/>
<path d="M19.7594 21.8353H12.2408C11.2018 21.8353 10.353 20.9865 10.353 19.9476V12.429C10.353 11.39 11.2018 10.5412 12.2408 10.5412H19.7594C20.7983 10.5412 21.6471 11.39 21.6471 12.429V19.9476C21.6471 20.9912 20.803 21.8353 19.7594 21.8353Z" fill="#8513AC"/>
<path d="M16.0024 19.0895C15.2278 19.0895 14.4996 18.788 13.9523 18.2407C13.405 17.6934 13.1035 16.9652 13.1035 16.1906C13.1035 15.416 13.405 14.6878 13.9523 14.1405C14.4996 13.5932 15.2278 13.2917 16.0024 13.2917C16.777 13.2917 17.5052 13.5932 18.0525 14.1405C18.5998 14.6878 18.9013 15.416 18.9013 16.1906C18.9013 16.9652 18.5998 17.6934 18.0525 18.2407C17.5006 18.788 16.777 19.0895 16.0024 19.0895ZM16.0024 13.9086C14.7455 13.9086 13.7204 14.929 13.7204 16.1906C13.7204 17.4476 14.7408 18.4726 16.0024 18.4726C17.2594 18.4726 18.2844 17.4522 18.2844 16.1906C18.2798 14.9336 17.2594 13.9086 16.0024 13.9086Z" fill="white"/>
<path d="M19.4663 13.1964C19.7737 13.1964 20.0229 12.9472 20.0229 12.6398C20.0229 12.3324 19.7737 12.0832 19.4663 12.0832C19.1589 12.0832 18.9097 12.3324 18.9097 12.6398C18.9097 12.9472 19.1589 13.1964 19.4663 13.1964Z" fill="white"/>
</svg>
