<svg width="32" height="32" viewBox="0 0 32 32" fill="none" xmlns="http://www.w3.org/2000/svg">
<circle cx="16" cy="16" r="16" fill="white"/>
<g clip-path="url(#clip0_330_1277)">
<path fill-rule="evenodd" clip-rule="evenodd" d="M21.833 10.09C22.6489 9.74647 23.5236 10.4364 23.3795 11.3099L21.6779 21.6275C21.5138 22.6223 20.4212 23.1931 19.5085 22.6973C18.7448 22.2825 17.6117 21.644 16.5905 20.9768C16.0805 20.6435 14.5191 19.5751 14.711 18.8145C14.8751 18.1642 17.5001 15.7208 19.0001 14.2676C19.5893 13.6968 19.3209 13.3671 18.6251 13.8926C16.8989 15.1964 14.1275 17.1785 13.211 17.7364C12.4024 18.2285 11.9802 18.3125 11.4766 18.2285C10.557 18.0753 9.70447 17.838 9.00841 17.5495C8.06763 17.1595 8.11345 15.8666 9.00777 15.4901L21.833 10.09Z" fill="#8513AC"/>
</g>
<defs>
<clipPath id="clip0_330_1277">
<rect width="18" height="18" fill="white" transform="translate(7 7)"/>
</clipPath>
</defs>
</svg>
