<svg width="32" height="32" viewBox="0 0 32 32" fill="none" xmlns="http://www.w3.org/2000/svg">
<circle cx="16" cy="16" r="16" fill="white"/>
<path fill-rule="evenodd" clip-rule="evenodd" d="M16.279 8.0139C20.0366 8.02861 21.8375 9.0446 22.2547 9.38496C23.6411 10.4507 24.3473 13.001 23.8309 16.7371C23.381 19.9998 20.9434 20.5101 20.0629 20.6944C19.9652 20.7149 19.8867 20.7313 19.8322 20.747C19.6006 20.815 17.4475 21.2948 14.7413 21.1361C14.7413 21.1361 12.7243 23.3209 12.0943 23.8889C11.996 23.977 11.8803 24.0128 11.8032 23.996C11.6959 23.9721 11.6661 23.8568 11.6661 23.6882C11.6679 23.4472 11.6834 20.7042 11.6834 20.7042C7.87428 19.7541 7.96273 16.2693 8.01294 14.2912C8.01466 14.2232 8.01634 14.157 8.01782 14.0927C8.06222 12.1587 8.46722 10.5738 9.6694 9.50804C11.8294 7.7514 16.279 8.0139 16.279 8.0139ZM15.426 10.0168C15.2956 10.0159 15.1891 10.122 15.1882 10.2538C15.1872 10.3856 15.2923 10.4931 15.4227 10.4941C16.6803 10.5029 17.7195 10.9213 18.5564 11.7454C19.3855 12.5618 19.8166 13.6871 19.8276 15.1508C19.8286 15.2826 19.9352 15.3886 20.0657 15.3876C20.1961 15.3866 20.3011 15.279 20.3001 15.1472C20.2883 13.5852 19.8244 12.3275 18.8862 11.4036C17.9558 10.4875 16.797 10.0265 15.426 10.0168ZM15.6052 11.476C15.6148 11.3445 15.728 11.2458 15.8581 11.2554C16.8501 11.3287 17.6486 11.6711 18.2302 12.3124L18.2303 12.3125C18.8056 12.9475 19.0791 13.7375 19.0592 14.664C19.0564 14.7958 18.9484 14.9003 18.8179 14.8974C18.6875 14.8946 18.584 14.7854 18.5869 14.6537C18.6044 13.8366 18.3665 13.1697 17.8818 12.6347C17.3985 12.1019 16.7231 11.7978 15.8236 11.7314C15.6935 11.7217 15.5957 11.6074 15.6052 11.476ZM15.9631 12.7615C15.9699 12.6299 16.081 12.5288 16.2113 12.5356C16.6987 12.5613 17.1043 12.7104 17.3932 13.012C17.6809 13.3126 17.8219 13.7324 17.8467 14.2366C17.8532 14.3682 17.7528 14.4802 17.6225 14.4867C17.4922 14.4933 17.3813 14.3918 17.3748 14.2602C17.3536 13.8286 17.2364 13.5348 17.0535 13.3438C16.8718 13.154 16.5944 13.0337 16.1867 13.0122C16.0564 13.0054 15.9563 12.8931 15.9631 12.7615ZM15.9407 16.9371C15.9407 16.9371 16.2399 16.9624 16.401 16.764L16.715 16.3689C16.8665 16.173 17.232 16.0481 17.59 16.2475C17.8583 16.4005 18.1187 16.5668 18.3704 16.7458C18.5614 16.8863 18.9134 17.1762 19.0447 17.2845L19.0447 17.2845C19.0767 17.3108 19.0956 17.3264 19.0959 17.3264C19.3277 17.522 19.3812 17.8093 19.2234 18.1122C19.2234 18.1131 19.2231 18.1144 19.2227 18.1156L19.2227 18.1156C19.2224 18.1167 19.2222 18.1178 19.2222 18.1185C19.0484 18.4198 18.8277 18.6914 18.5685 18.9233C18.567 18.9241 18.5662 18.9249 18.5655 18.9257C18.5648 18.9264 18.5641 18.9271 18.5627 18.9278C18.3375 19.116 18.1163 19.2229 17.899 19.2487C17.867 19.2543 17.8345 19.2563 17.8021 19.2547C17.7063 19.2557 17.6109 19.241 17.5198 19.2113L17.5128 19.201C17.178 19.1066 16.6191 18.8703 15.6883 18.3568C15.1496 18.0632 14.6368 17.7245 14.1554 17.3443C13.914 17.1539 13.6838 16.9497 13.4659 16.7329L13.4427 16.7097L13.4195 16.6865L13.3962 16.6632C13.391 16.6582 13.3859 16.653 13.3808 16.6478C13.3782 16.6452 13.3756 16.6426 13.373 16.64C13.1562 16.4221 12.952 16.1919 12.7616 15.9506C12.3814 15.4692 12.0427 14.9566 11.749 14.4181C11.2355 13.4871 10.9992 12.9287 10.9047 12.5935L10.8944 12.5864C10.8648 12.4953 10.8502 12.4 10.8512 12.3042C10.8495 12.2718 10.8514 12.2393 10.857 12.2073C10.8841 11.9903 10.9913 11.769 11.1784 11.5431C11.1791 11.5418 11.1799 11.5411 11.1806 11.5404C11.1814 11.5396 11.1822 11.5389 11.1829 11.5373C11.4148 11.2781 11.6865 11.0576 11.9878 10.884C11.9885 10.884 11.9896 10.8837 11.9907 10.8833C11.9919 10.8829 11.9932 10.8825 11.9941 10.8825C12.297 10.7247 12.5843 10.7782 12.7797 11.0087C12.7812 11.0102 13.1864 11.4967 13.3604 11.7342C13.5394 11.9861 13.7058 12.2467 13.8587 12.5152C14.0582 12.8729 13.9332 13.2392 13.7373 13.3902L13.3422 13.7042C13.1428 13.8653 13.169 14.1644 13.169 14.1644C13.169 14.1644 13.7542 16.379 15.9407 16.9371Z" fill="#8513AC"/>
</svg>
